# xmcd
#
# Track frame offsets:
#	150
#	12879
#	26467
#	40115
#	59489
#	70888
#	85820
#	99802
#	111928
#	122685
#	140503
#	156588
#
# Disc length: 2289 seconds
# Revision: 1
# Processed by: cddbd v1.5.2PL0 Copyright (c) Steve Scherf et al.
# Submitted via: dBpowerAMP V12.0
#
DISCID=9a08ef0c
DTITLE=Rob Wilson - Rough Around The Edges
DYEAR=2003
DGENRE=Country
TTITLE0=Same Ol Love
TTITLE1=Rough Around The Edges
TTITLE2=I Give Up
TTITLE3=I'll Do The Hurtin Round Here
TTITLE4=Tomorrow's Another Day
TTITLE5=My Hearts Got a Mind of It's Own
TTITLE6=Some Things Aren't Meant to Be
TTITLE7=When The Timings Right
TTITLE8=You're in Trouble
TTITLE9=You Will Be Ok
TTITLE10=I've Never Lost Her
TTITLE11=I Think I Like it Here
EXTD=
EXTT0=
EXTT1=
EXTT2=
EXTT3=
EXTT4=
EXTT5=
EXTT6=
EXTT7=
EXTT8=
EXTT9=
EXTT10=
EXTT11=
PLAYORDER=
